solid Pia
facet normal 0.200772 0.976067 0.083565
outer loop
vertex -0.020989 0.017786 -0.006012
vertex -0.021977 0.017958 -0.005647
vertex -0.020610 0.017594 -0.004681
endloop
endfacet
facet normal 0.267479 0.961539 0.062438
outer loop
vertex -0.020989 0.017786 -0.006012
vertex -0.020610 0.017594 -0.004681
vertex -0.019668 0.017354 -0.005021
endloop
endfacet
facet normal 0.189405 0.967232 0.169080
outer loop
vertex -0.020989 0.017786 -0.006012
vertex -0.019668 0.017354 -0.005021
vertex -0.019962 0.017652 -0.006396
endloop
endfacet
facet normal 0.189166 0.967401 0.168381
outer loop
vertex -0.020989 0.017786 -0.006012
vertex -0.019962 0.017652 -0.006396
vertex -0.021278 0.018081 -0.007382
endloop
endfacet
endsolid Pia
